<svg width="1440" height="185" viewBox="0 0 1440 185" fill="none" xmlns="http://www.w3.org/2000/svg">
<rect x="1440" y="185" width="1440" height="185" transform="rotate(-180 1440 185)" fill="#44D9F9"/>
<path d="M391.532 81.56V92.76H406.572V99.864H391.532V111.704H408.492V119H382.572V74.264H408.492V81.56H391.532ZM443.387 119L433.723 103.96L424.955 119H414.843L428.923 96.472L414.651 74.328H424.955L434.619 89.304L443.323 74.328H453.435L439.419 96.792L453.691 119H443.387ZM493.086 88.152C493.086 90.5413 492.51 92.7813 491.358 94.872C490.248 96.9627 488.478 98.648 486.046 99.928C483.656 101.208 480.627 101.848 476.958 101.848H469.47V119H460.51V74.328H476.958C480.414 74.328 483.358 74.9253 485.79 76.12C488.222 77.3147 490.035 78.9573 491.23 81.048C492.467 83.1387 493.086 85.5067 493.086 88.152ZM476.574 94.616C479.048 94.616 480.883 94.0613 482.078 92.952C483.272 91.8 483.87 90.2 483.87 88.152C483.87 83.8 481.438 81.624 476.574 81.624H469.47V94.616H476.574ZM508.407 111.896H523.127V119H499.447V74.328H508.407V111.896ZM549.558 119.448C545.377 119.448 541.537 118.467 538.038 116.504C534.54 114.541 531.766 111.832 529.718 108.376C527.67 104.877 526.646 100.931 526.646 96.536C526.646 92.184 527.67 88.28 529.718 84.824C531.766 81.3253 534.54 78.5947 538.038 76.632C541.537 74.6693 545.377 73.688 549.558 73.688C553.782 73.688 557.622 74.6693 561.078 76.632C564.577 78.5947 567.329 81.3253 569.334 84.824C571.382 88.28 572.406 92.184 572.406 96.536C572.406 100.931 571.382 104.877 569.334 108.376C567.329 111.832 564.577 114.541 561.078 116.504C557.58 118.467 553.74 119.448 549.558 119.448ZM549.558 111.448C552.246 111.448 554.614 110.851 556.662 109.656C558.71 108.419 560.31 106.669 561.462 104.408C562.614 102.147 563.19 99.5227 563.19 96.536C563.19 93.5493 562.614 90.9467 561.462 88.728C560.31 86.4667 558.71 84.7387 556.662 83.544C554.614 82.3493 552.246 81.752 549.558 81.752C546.87 81.752 544.481 82.3493 542.39 83.544C540.342 84.7387 538.742 86.4667 537.59 88.728C536.438 90.9467 535.862 93.5493 535.862 96.536C535.862 99.5227 536.438 102.147 537.59 104.408C538.742 106.669 540.342 108.419 542.39 109.656C544.481 110.851 546.87 111.448 549.558 111.448ZM602.112 119L592.256 101.592H588.032V119H579.072V74.328H595.84C599.296 74.328 602.24 74.9467 604.672 76.184C607.104 77.3787 608.918 79.0213 610.112 81.112C611.35 83.16 611.968 85.464 611.968 88.024C611.968 90.968 611.115 93.6347 609.408 96.024C607.702 98.3707 605.163 99.992 601.792 100.888L612.48 119H602.112ZM588.032 94.872H595.52C597.952 94.872 599.766 94.296 600.96 93.144C602.155 91.9493 602.752 90.3067 602.752 88.216C602.752 86.168 602.155 84.5893 600.96 83.48C599.766 82.328 597.952 81.752 595.52 81.752H588.032V94.872ZM629.032 81.56V92.76H644.072V99.864H629.032V111.704H645.992V119H620.072V74.264H645.992V81.56H629.032ZM690.121 119.448C685.939 119.448 682.099 118.467 678.601 116.504C675.102 114.541 672.329 111.832 670.281 108.376C668.233 104.877 667.209 100.931 667.209 96.536C667.209 92.184 668.233 88.28 670.281 84.824C672.329 81.3253 675.102 78.5947 678.601 76.632C682.099 74.6693 685.939 73.688 690.121 73.688C694.345 73.688 698.185 74.6693 701.641 76.632C705.139 78.5947 707.891 81.3253 709.897 84.824C711.945 88.28 712.969 92.184 712.969 96.536C712.969 100.931 711.945 104.877 709.897 108.376C707.891 111.832 705.139 114.541 701.641 116.504C698.142 118.467 694.302 119.448 690.121 119.448ZM690.121 111.448C692.809 111.448 695.177 110.851 697.225 109.656C699.273 108.419 700.873 106.669 702.025 104.408C703.177 102.147 703.753 99.5227 703.753 96.536C703.753 93.5493 703.177 90.9467 702.025 88.728C700.873 86.4667 699.273 84.7387 697.225 83.544C695.177 82.3493 692.809 81.752 690.121 81.752C687.433 81.752 685.043 82.3493 682.953 83.544C680.905 84.7387 679.305 86.4667 678.153 88.728C677.001 90.9467 676.425 93.5493 676.425 96.536C676.425 99.5227 677.001 102.147 678.153 104.408C679.305 106.669 680.905 108.419 682.953 109.656C685.043 110.851 687.433 111.448 690.121 111.448ZM728.467 74.328V101.976C728.467 105.005 729.256 107.331 730.835 108.952C732.413 110.531 734.632 111.32 737.491 111.32C740.392 111.32 742.632 110.531 744.211 108.952C745.789 107.331 746.579 105.005 746.579 101.976V74.328H755.603V101.912C755.603 105.709 754.771 108.931 753.107 111.576C751.485 114.179 749.288 116.141 746.515 117.464C743.784 118.787 740.733 119.448 737.363 119.448C734.035 119.448 731.005 118.787 728.275 117.464C725.587 116.141 723.453 114.179 721.875 111.576C720.296 108.931 719.507 105.709 719.507 101.912V74.328H728.467ZM787.3 119L777.444 101.592H773.22V119H764.26V74.328H781.028C784.484 74.328 787.428 74.9467 789.86 76.184C792.292 77.3787 794.105 79.0213 795.3 81.112C796.537 83.16 797.156 85.464 797.156 88.024C797.156 90.968 796.302 93.6347 794.596 96.024C792.889 98.3707 790.35 99.992 786.98 100.888L797.668 119H787.3ZM773.22 94.872H780.708C783.14 94.872 784.953 94.296 786.148 93.144C787.342 91.9493 787.94 90.3067 787.94 88.216C787.94 86.168 787.342 84.5893 786.148 83.48C784.953 82.328 783.14 81.752 780.708 81.752H773.22V94.872ZM853.086 88.152C853.086 90.5413 852.51 92.7813 851.358 94.872C850.248 96.9627 848.478 98.648 846.046 99.928C843.656 101.208 840.627 101.848 836.958 101.848H829.47V119H820.51V74.328H836.958C840.414 74.328 843.358 74.9253 845.79 76.12C848.222 77.3147 850.035 78.9573 851.23 81.048C852.467 83.1387 853.086 85.5067 853.086 88.152ZM836.574 94.616C839.048 94.616 840.883 94.0613 842.078 92.952C843.272 91.8 843.87 90.2 843.87 88.152C843.87 83.8 841.438 81.624 836.574 81.624H829.47V94.616H836.574ZM882.487 119L872.631 101.592H868.407V119H859.447V74.328H876.215C879.671 74.328 882.615 74.9467 885.047 76.184C887.479 77.3787 889.293 79.0213 890.487 81.112C891.725 83.16 892.343 85.464 892.343 88.024C892.343 90.968 891.49 93.6347 889.783 96.024C888.077 98.3707 885.538 99.992 882.167 100.888L892.855 119H882.487ZM868.407 94.872H875.895C878.327 94.872 880.141 94.296 881.335 93.144C882.53 91.9493 883.127 90.3067 883.127 88.216C883.127 86.168 882.53 84.5893 881.335 83.48C880.141 82.328 878.327 81.752 875.895 81.752H868.407V94.872ZM921.183 119.448C917.002 119.448 913.162 118.467 909.663 116.504C906.165 114.541 903.391 111.832 901.343 108.376C899.295 104.877 898.271 100.931 898.271 96.536C898.271 92.184 899.295 88.28 901.343 84.824C903.391 81.3253 906.165 78.5947 909.663 76.632C913.162 74.6693 917.002 73.688 921.183 73.688C925.407 73.688 929.247 74.6693 932.703 76.632C936.202 78.5947 938.954 81.3253 940.959 84.824C943.007 88.28 944.031 92.184 944.031 96.536C944.031 100.931 943.007 104.877 940.959 108.376C938.954 111.832 936.202 114.541 932.703 116.504C929.205 118.467 925.365 119.448 921.183 119.448ZM921.183 111.448C923.871 111.448 926.239 110.851 928.287 109.656C930.335 108.419 931.935 106.669 933.087 104.408C934.239 102.147 934.815 99.5227 934.815 96.536C934.815 93.5493 934.239 90.9467 933.087 88.728C931.935 86.4667 930.335 84.7387 928.287 83.544C926.239 82.3493 923.871 81.752 921.183 81.752C918.495 81.752 916.106 82.3493 914.015 83.544C911.967 84.7387 910.367 86.4667 909.215 88.728C908.063 90.9467 907.487 93.5493 907.487 96.536C907.487 99.5227 908.063 102.147 909.215 104.408C910.367 106.669 911.967 108.419 914.015 109.656C916.106 110.851 918.495 111.448 921.183 111.448ZM966.313 74.328C971.007 74.328 975.124 75.2453 978.665 77.08C982.249 78.9147 985.001 81.5387 986.921 84.952C988.884 88.3227 989.865 92.248 989.865 96.728C989.865 101.208 988.884 105.133 986.921 108.504C985.001 111.832 982.249 114.413 978.665 116.248C975.124 118.083 971.007 119 966.313 119H950.697V74.328H966.313ZM965.993 111.384C970.687 111.384 974.313 110.104 976.873 107.544C979.433 104.984 980.713 101.379 980.713 96.728C980.713 92.0773 979.433 88.4507 976.873 85.848C974.313 83.2027 970.687 81.88 965.993 81.88H959.657V111.384H965.993ZM1005.4 74.328V101.976C1005.4 105.005 1006.19 107.331 1007.77 108.952C1009.35 110.531 1011.57 111.32 1014.43 111.32C1017.33 111.32 1019.57 110.531 1021.15 108.952C1022.73 107.331 1023.52 105.005 1023.52 101.976V74.328H1032.54V101.912C1032.54 105.709 1031.71 108.931 1030.04 111.576C1028.42 114.179 1026.23 116.141 1023.45 117.464C1020.72 118.787 1017.67 119.448 1014.3 119.448C1010.97 119.448 1007.94 118.787 1005.21 117.464C1002.52 116.141 1000.39 114.179 998.812 111.576C997.234 108.931 996.444 105.709 996.444 101.912V74.328H1005.4ZM1039.02 96.6C1039.02 92.2053 1040 88.28 1041.97 84.824C1043.97 81.3253 1046.68 78.616 1050.09 76.696C1053.55 74.7333 1057.41 73.752 1061.68 73.752C1066.67 73.752 1071.04 75.032 1074.8 77.592C1078.55 80.152 1081.18 83.6933 1082.67 88.216H1072.37C1071.34 86.0827 1069.89 84.4827 1068.01 83.416C1066.18 82.3493 1064.05 81.816 1061.61 81.816C1059.01 81.816 1056.69 82.4347 1054.64 83.672C1052.63 84.8667 1051.05 86.5733 1049.9 88.792C1048.79 91.0107 1048.24 93.6133 1048.24 96.6C1048.24 99.544 1048.79 102.147 1049.9 104.408C1051.05 106.627 1052.63 108.355 1054.64 109.592C1056.69 110.787 1059.01 111.384 1061.61 111.384C1064.05 111.384 1066.18 110.851 1068.01 109.784C1069.89 108.675 1071.34 107.053 1072.37 104.92H1082.67C1081.18 109.485 1078.55 113.048 1074.8 115.608C1071.09 118.125 1066.71 119.384 1061.68 119.384C1057.41 119.384 1053.55 118.424 1050.09 116.504C1046.68 114.541 1043.97 111.832 1041.97 108.376C1040 104.92 1039.02 100.995 1039.02 96.6ZM1120.72 74.328V81.56H1108.82V119H1099.86V81.56H1087.95V74.328H1120.72Z" fill="white"/>
</svg>
