<svg width="785" height="39" viewBox="0 0 785 39" fill="none" xmlns="http://www.w3.org/2000/svg">
<path d="M0.642046 36V1.09091H24.4716V7.94318H9.07955V15.1023H22.9545V21.9716H9.07955V36H0.642046ZM28.7202 36V1.09091H43.1406C45.7543 1.09091 48.0099 1.5625 49.9077 2.50568C51.8168 3.4375 53.2884 4.77841 54.3224 6.52841C55.3565 8.26704 55.8736 10.3295 55.8736 12.7159C55.8736 15.1364 55.3452 17.1932 54.2884 18.8864C53.2315 20.5682 51.7315 21.8523 49.7884 22.7386C47.8452 23.6136 45.544 24.0511 42.8849 24.0511H33.7656V17.4034H41.3168C42.5895 17.4034 43.652 17.2386 44.5043 16.9091C45.3679 16.5682 46.0213 16.0568 46.4645 15.375C46.9077 14.6818 47.1293 13.7955 47.1293 12.7159C47.1293 11.6364 46.9077 10.7443 46.4645 10.0398C46.0213 9.32386 45.3679 8.78977 44.5043 8.4375C43.6406 8.07386 42.5781 7.89205 41.3168 7.89205H37.1577V36H28.7202ZM48.3736 20.0455L57.0668 36H47.8622L39.3395 20.0455H48.3736ZM60.5014 36V1.09091H84.8423V7.94318H68.9389V15.1023H83.598V21.9716H68.9389V29.1477H84.8423V36H60.5014ZM103.473 23.4545H110.291L113.189 27.1534L116.99 31.517L122.837 38.7273H115.2L111.109 33.8352L108.689 30.358L103.473 23.4545ZM123.075 18.5455C123.075 22.3864 122.337 25.642 120.859 28.3125C119.382 30.983 117.382 33.0114 114.859 34.3977C112.348 35.7841 109.53 36.4773 106.405 36.4773C103.268 36.4773 100.445 35.7784 97.9332 34.3807C95.4219 32.983 93.4276 30.9545 91.9503 28.2955C90.4844 25.625 89.7514 22.375 89.7514 18.5455C89.7514 14.7045 90.4844 11.4489 91.9503 8.77841C93.4276 6.10795 95.4219 4.07955 97.9332 2.69318C100.445 1.30682 103.268 0.613635 106.405 0.613635C109.53 0.613635 112.348 1.30682 114.859 2.69318C117.382 4.07955 119.382 6.10795 120.859 8.77841C122.337 11.4489 123.075 14.7045 123.075 18.5455ZM114.45 18.5455C114.45 16.2727 114.126 14.3523 113.479 12.7841C112.842 11.2159 111.922 10.0284 110.717 9.22159C109.524 8.41477 108.087 8.01136 106.405 8.01136C104.734 8.01136 103.297 8.41477 102.092 9.22159C100.888 10.0284 99.9616 11.2159 99.3139 12.7841C98.6776 14.3523 98.3594 16.2727 98.3594 18.5455C98.3594 20.8182 98.6776 22.7386 99.3139 24.3068C99.9616 25.875 100.888 27.0625 102.092 27.8693C103.297 28.6761 104.734 29.0795 106.405 29.0795C108.087 29.0795 109.524 28.6761 110.717 27.8693C111.922 27.0625 112.842 25.875 113.479 24.3068C114.126 22.7386 114.45 20.8182 114.45 18.5455ZM149.168 1.09091H157.588V23.608C157.588 26.2102 156.969 28.4773 155.73 30.4091C154.491 32.3295 152.764 33.8182 150.548 34.875C148.332 35.9205 145.759 36.4432 142.827 36.4432C139.861 36.4432 137.27 35.9205 135.054 34.875C132.838 33.8182 131.116 32.3295 129.889 30.4091C128.662 28.4773 128.048 26.2102 128.048 23.608V1.09091H136.486V22.875C136.486 24.0795 136.747 25.1534 137.27 26.0966C137.804 27.0398 138.548 27.7784 139.503 28.3125C140.457 28.8466 141.565 29.1136 142.827 29.1136C144.088 29.1136 145.19 28.8466 146.134 28.3125C147.088 27.7784 147.832 27.0398 148.366 26.0966C148.901 25.1534 149.168 24.0795 149.168 22.875V1.09091ZM162.876 36V1.09091H187.217V7.94318H171.314V15.1023H185.973V21.9716H171.314V29.1477H187.217V36H162.876ZM222.212 1.09091V36H215.053L201.161 15.8523H200.939V36H192.501V1.09091H199.763L213.501 21.2045H213.791V1.09091H222.212ZM226.375 7.94318V1.09091H255.881V7.94318H245.295V36H236.977V7.94318H226.375ZM260.001 36V1.09091H268.439V29.1477H282.962V36H260.001ZM280.2 1.09091H289.626L297.007 15.6989H297.314L304.695 1.09091H314.121L301.354 24.3409V36H292.967V24.3409L280.2 1.09091ZM335.521 36H326.453L338.232 1.09091H349.464L361.243 36H352.175L343.976 9.88636H343.703L335.521 36ZM334.311 22.2614H353.266V28.6705H334.311V22.2614ZM382.793 11.5568C382.679 10.3068 382.173 9.33523 381.276 8.64205C380.389 7.9375 379.122 7.58523 377.474 7.58523C376.384 7.58523 375.474 7.72727 374.747 8.01136C374.02 8.29545 373.474 8.6875 373.111 9.1875C372.747 9.67614 372.56 10.2386 372.548 10.875C372.526 11.3977 372.628 11.858 372.855 12.2557C373.094 12.6534 373.435 13.0057 373.878 13.3125C374.332 13.608 374.878 13.8693 375.514 14.0966C376.151 14.3239 376.866 14.5227 377.662 14.6932L380.662 15.375C382.389 15.75 383.912 16.25 385.23 16.875C386.56 17.5 387.673 18.2443 388.571 19.108C389.48 19.9716 390.168 20.9659 390.634 22.0909C391.099 23.2159 391.338 24.4773 391.349 25.875C391.338 28.0795 390.781 29.9716 389.679 31.5511C388.577 33.1307 386.991 34.3409 384.923 35.1818C382.866 36.0227 380.384 36.4432 377.474 36.4432C374.554 36.4432 372.009 36.0057 369.838 35.1307C367.668 34.2557 365.98 32.9261 364.776 31.142C363.571 29.358 362.952 27.1023 362.918 24.375H370.997C371.065 25.5 371.366 26.4375 371.901 27.1875C372.435 27.9375 373.168 28.5057 374.099 28.892C375.043 29.2784 376.134 29.4716 377.372 29.4716C378.509 29.4716 379.474 29.3182 380.27 29.0114C381.077 28.7045 381.696 28.2784 382.128 27.733C382.56 27.1875 382.781 26.5625 382.793 25.858C382.781 25.1989 382.577 24.6364 382.179 24.1705C381.781 23.6932 381.168 23.2841 380.338 22.9432C379.52 22.5909 378.474 22.267 377.202 21.9716L373.554 21.1193C370.531 20.4261 368.151 19.3068 366.412 17.7614C364.673 16.2045 363.81 14.1023 363.821 11.4545C363.81 9.29545 364.389 7.40341 365.56 5.77841C366.73 4.15341 368.349 2.88636 370.418 1.97727C372.486 1.06818 374.844 0.613635 377.491 0.613635C380.196 0.613635 382.543 1.07386 384.531 1.99432C386.531 2.90341 388.082 4.18182 389.185 5.82955C390.287 7.47727 390.849 9.38636 390.872 11.5568H382.793ZM395.611 36V1.09091H404.048V15.8523H404.509L416.048 1.09091H425.986L413.611 16.6705L426.207 36H416.116L407.423 22.2784L404.048 26.5398V36H395.611ZM429.314 36V1.09091H453.655V7.94318H437.751V15.1023H452.411V21.9716H437.751V29.1477H453.655V36H429.314ZM471.842 36H458.939V1.09091H471.825C475.382 1.09091 478.445 1.78977 481.013 3.1875C483.592 4.57386 485.581 6.57386 486.979 9.1875C488.376 11.7898 489.075 14.9034 489.075 18.5284C489.075 22.1648 488.376 25.2898 486.979 27.9034C485.592 30.517 483.609 32.5227 481.03 33.9205C478.45 35.3068 475.388 36 471.842 36ZM467.376 28.8068H471.518C473.473 28.8068 475.126 28.4773 476.479 27.8182C477.842 27.1477 478.871 26.0625 479.564 24.5625C480.268 23.0511 480.621 21.0398 480.621 18.5284C480.621 16.017 480.268 14.017 479.564 12.5284C478.859 11.0284 477.82 9.94886 476.445 9.28977C475.081 8.61932 473.399 8.28409 471.399 8.28409H467.376V28.8068ZM517.661 23.4545H524.479L527.376 27.1534L531.178 31.517L537.024 38.7273H529.388L525.297 33.8352L522.876 30.358L517.661 23.4545ZM537.263 18.5455C537.263 22.3864 536.524 25.642 535.047 28.3125C533.57 30.983 531.57 33.0114 529.047 34.3977C526.536 35.7841 523.717 36.4773 520.592 36.4773C517.456 36.4773 514.632 35.7784 512.121 34.3807C509.609 32.983 507.615 30.9545 506.138 28.2955C504.672 25.625 503.939 22.375 503.939 18.5455C503.939 14.7045 504.672 11.4489 506.138 8.77841C507.615 6.10795 509.609 4.07955 512.121 2.69318C514.632 1.30682 517.456 0.613635 520.592 0.613635C523.717 0.613635 526.536 1.30682 529.047 2.69318C531.57 4.07955 533.57 6.10795 535.047 8.77841C536.524 11.4489 537.263 14.7045 537.263 18.5455ZM528.638 18.5455C528.638 16.2727 528.314 14.3523 527.666 12.7841C527.03 11.2159 526.109 10.0284 524.905 9.22159C523.712 8.41477 522.274 8.01136 520.592 8.01136C518.922 8.01136 517.484 8.41477 516.28 9.22159C515.075 10.0284 514.149 11.2159 513.501 12.7841C512.865 14.3523 512.547 16.2727 512.547 18.5455C512.547 20.8182 512.865 22.7386 513.501 24.3068C514.149 25.875 515.075 27.0625 516.28 27.8693C517.484 28.6761 518.922 29.0795 520.592 29.0795C522.274 29.0795 523.712 28.6761 524.905 27.8693C526.109 27.0625 527.03 25.875 527.666 24.3068C528.314 22.7386 528.638 20.8182 528.638 18.5455ZM563.355 1.09091H571.776V23.608C571.776 26.2102 571.156 28.4773 569.918 30.4091C568.679 32.3295 566.952 33.8182 564.736 34.875C562.52 35.9205 559.946 36.4432 557.014 36.4432C554.048 36.4432 551.457 35.9205 549.241 34.875C547.026 33.8182 545.304 32.3295 544.077 30.4091C542.849 28.4773 542.236 26.2102 542.236 23.608V1.09091H550.673V22.875C550.673 24.0795 550.935 25.1534 551.457 26.0966C551.991 27.0398 552.736 27.7784 553.69 28.3125C554.645 28.8466 555.753 29.1136 557.014 29.1136C558.276 29.1136 559.378 28.8466 560.321 28.3125C561.276 27.7784 562.02 27.0398 562.554 26.0966C563.088 25.1534 563.355 24.0795 563.355 22.875V1.09091ZM577.064 36V1.09091H601.405V7.94318H585.501V15.1023H600.161V21.9716H585.501V29.1477H601.405V36H577.064ZM625.558 11.5568C625.445 10.3068 624.939 9.33523 624.041 8.64205C623.155 7.9375 621.888 7.58523 620.24 7.58523C619.149 7.58523 618.24 7.72727 617.513 8.01136C616.786 8.29545 616.24 8.6875 615.876 9.1875C615.513 9.67614 615.325 10.2386 615.314 10.875C615.291 11.3977 615.393 11.858 615.621 12.2557C615.859 12.6534 616.2 13.0057 616.643 13.3125C617.098 13.608 617.643 13.8693 618.28 14.0966C618.916 14.3239 619.632 14.5227 620.428 14.6932L623.428 15.375C625.155 15.75 626.678 16.25 627.996 16.875C629.325 17.5 630.439 18.2443 631.337 19.108C632.246 19.9716 632.933 20.9659 633.399 22.0909C633.865 23.2159 634.104 24.4773 634.115 25.875C634.104 28.0795 633.547 29.9716 632.445 31.5511C631.342 33.1307 629.757 34.3409 627.689 35.1818C625.632 36.0227 623.149 36.4432 620.24 36.4432C617.32 36.4432 614.774 36.0057 612.604 35.1307C610.433 34.2557 608.746 32.9261 607.541 31.142C606.337 29.358 605.717 27.1023 605.683 24.375H613.763C613.831 25.5 614.132 26.4375 614.666 27.1875C615.2 27.9375 615.933 28.5057 616.865 28.892C617.808 29.2784 618.899 29.4716 620.138 29.4716C621.274 29.4716 622.24 29.3182 623.036 29.0114C623.842 28.7045 624.462 28.2784 624.893 27.733C625.325 27.1875 625.547 26.5625 625.558 25.858C625.547 25.1989 625.342 24.6364 624.945 24.1705C624.547 23.6932 623.933 23.2841 623.104 22.9432C622.286 22.5909 621.24 22.267 619.967 21.9716L616.32 21.1193C613.297 20.4261 610.916 19.3068 609.178 17.7614C607.439 16.2045 606.575 14.1023 606.587 11.4545C606.575 9.29545 607.155 7.40341 608.325 5.77841C609.496 4.15341 611.115 2.88636 613.183 1.97727C615.251 1.06818 617.609 0.613635 620.257 0.613635C622.962 0.613635 625.308 1.07386 627.297 1.99432C629.297 2.90341 630.848 4.18182 631.95 5.82955C633.053 7.47727 633.615 9.38636 633.638 11.5568H625.558ZM637.234 7.94318V1.09091H666.74V7.94318H656.155V36H647.837V7.94318H637.234ZM679.298 1.09091V36H670.861V1.09091H679.298ZM717.544 18.5455C717.544 22.3864 716.805 25.642 715.328 28.3125C713.851 30.983 711.851 33.0114 709.328 34.3977C706.817 35.7841 703.999 36.4773 700.874 36.4773C697.737 36.4773 694.913 35.7784 692.402 34.3807C689.891 32.983 687.896 30.9545 686.419 28.2955C684.953 25.625 684.22 22.375 684.22 18.5455C684.22 14.7045 684.953 11.4489 686.419 8.77841C687.896 6.10795 689.891 4.07955 692.402 2.69318C694.913 1.30682 697.737 0.613635 700.874 0.613635C703.999 0.613635 706.817 1.30682 709.328 2.69318C711.851 4.07955 713.851 6.10795 715.328 8.77841C716.805 11.4489 717.544 14.7045 717.544 18.5455ZM708.919 18.5455C708.919 16.2727 708.595 14.3523 707.947 12.7841C707.311 11.2159 706.391 10.0284 705.186 9.22159C703.993 8.41477 702.555 8.01136 700.874 8.01136C699.203 8.01136 697.766 8.41477 696.561 9.22159C695.357 10.0284 694.43 11.2159 693.783 12.7841C693.146 14.3523 692.828 16.2727 692.828 18.5455C692.828 20.8182 693.146 22.7386 693.783 24.3068C694.43 25.875 695.357 27.0625 696.561 27.8693C697.766 28.6761 699.203 29.0795 700.874 29.0795C702.555 29.0795 703.993 28.6761 705.186 27.8693C706.391 27.0625 707.311 25.875 707.947 24.3068C708.595 22.7386 708.919 20.8182 708.919 18.5455ZM752.18 1.09091V36H745.021L731.129 15.8523H730.908V36H722.47V1.09091H729.732L743.47 21.2045H743.76V1.09091H752.18ZM776.355 11.5568C776.241 10.3068 775.736 9.33523 774.838 8.64205C773.952 7.9375 772.685 7.58523 771.037 7.58523C769.946 7.58523 769.037 7.72727 768.31 8.01136C767.582 8.29545 767.037 8.6875 766.673 9.1875C766.31 9.67614 766.122 10.2386 766.111 10.875C766.088 11.3977 766.19 11.858 766.418 12.2557C766.656 12.6534 766.997 13.0057 767.44 13.3125C767.895 13.608 768.44 13.8693 769.077 14.0966C769.713 14.3239 770.429 14.5227 771.224 14.6932L774.224 15.375C775.952 15.75 777.474 16.25 778.793 16.875C780.122 17.5 781.236 18.2443 782.134 19.108C783.043 19.9716 783.73 20.9659 784.196 22.0909C784.662 23.2159 784.901 24.4773 784.912 25.875C784.901 28.0795 784.344 29.9716 783.241 31.5511C782.139 33.1307 780.554 34.3409 778.486 35.1818C776.429 36.0227 773.946 36.4432 771.037 36.4432C768.116 36.4432 765.571 36.0057 763.401 35.1307C761.23 34.2557 759.543 32.9261 758.338 31.142C757.134 29.358 756.514 27.1023 756.48 24.375H764.56C764.628 25.5 764.929 26.4375 765.463 27.1875C765.997 27.9375 766.73 28.5057 767.662 28.892C768.605 29.2784 769.696 29.4716 770.935 29.4716C772.071 29.4716 773.037 29.3182 773.832 29.0114C774.639 28.7045 775.259 28.2784 775.69 27.733C776.122 27.1875 776.344 26.5625 776.355 25.858C776.344 25.1989 776.139 24.6364 775.741 24.1705C775.344 23.6932 774.73 23.2841 773.901 22.9432C773.082 22.5909 772.037 22.267 770.764 21.9716L767.116 21.1193C764.094 20.4261 761.713 19.3068 759.974 17.7614C758.236 16.2045 757.372 14.1023 757.384 11.4545C757.372 9.29545 757.952 7.40341 759.122 5.77841C760.293 4.15341 761.912 2.88636 763.98 1.97727C766.048 1.06818 768.406 0.613635 771.054 0.613635C773.759 0.613635 776.105 1.07386 778.094 1.99432C780.094 2.90341 781.645 4.18182 782.747 5.82955C783.849 7.47727 784.412 9.38636 784.435 11.5568H776.355Z" fill="#03045E"/>
</svg>
